<svg width="696" height="136" viewBox="0 0 696 136" fill="none" xmlns="http://www.w3.org/2000/svg">
<g id="RID">
<path id="r" fill-rule="evenodd" clip-rule="evenodd" d="M0 99.9217V30.8184H24.4835V35.2179C28.9674 31.3428 34.7835 29.4053 41.9316 29.4053C45.2148 29.4053 48.029 29.8292 50.3742 30.6771C52.8131 31.525 54.8769 32.844 56.5654 34.6339L42.3537 53.7115C41.6032 52.8636 40.5245 52.2042 39.1174 51.7331C37.8041 51.1679 36.3032 50.8852 34.6146 50.8852C31.4252 50.8852 28.9393 51.8744 27.157 53.8529C25.3747 55.7371 24.4835 58.5634 24.4835 62.3318V65.3701L24.3428 82.0813C24.3428 99.9217 7.51439 99.9217 0 99.9217Z" fill="#16DB65"/>
<g id="whites">
<path id="t" d="M75.052 3.74414H96.1239V31.3264H111.274V49.1657H96.1239V98.0179H75.052V49.1657H59.9023V31.3264H75.052V3.74414Z" fill="white"/>
<path id="a" fill-rule="evenodd" clip-rule="evenodd" d="M149.926 99.3901C143.774 99.3901 138.265 97.8806 133.399 94.8616C128.624 91.8427 124.814 87.7259 121.968 82.5114C119.213 77.2968 117.836 71.3504 117.836 64.6721C117.836 57.9938 119.213 52.0474 121.968 46.8328C124.814 41.6182 128.624 37.5015 133.399 34.4825C138.265 31.4636 143.774 29.9541 149.926 29.9541C154.425 29.9541 158.465 30.8232 162.045 32.5614C164.453 33.7009 166.565 35.1353 168.381 36.8647V31.3264H189.039V98.0178H168.381V92.6128C166.621 94.27 164.556 95.66 162.183 96.7828C158.511 98.521 154.425 99.3901 149.926 99.3901ZM165.075 76.0618C162.321 78.9892 158.694 80.453 154.195 80.453C151.349 80.453 148.778 79.7669 146.483 78.3946C144.187 77.0223 142.397 75.1469 141.111 72.7684C139.826 70.3898 139.183 67.691 139.183 64.6721C139.183 61.5616 139.826 58.8171 141.111 56.4386C142.489 54.06 144.279 52.2303 146.483 50.9496C148.778 49.5773 151.395 48.8912 154.333 48.8912C157.271 48.8912 159.842 49.5773 162.045 50.9496C164.341 52.2303 166.085 54.06 167.279 56.4386C168.564 58.8171 169.207 61.5616 169.207 64.6721C169.207 69.2463 167.83 73.0428 165.075 76.0618Z" fill="white"/>
<path id="i one" fill-rule="evenodd" clip-rule="evenodd" d="M217.128 32.8359V98.0179H229.523V32.8359H217.128Z" fill="white"/>
<path id="n one" fill-rule="evenodd" clip-rule="evenodd" d="M291.312 60.0067V98.0181H303.707V57.5367C303.707 53.054 302.605 48.8457 300.401 44.9119C298.198 40.8867 295.168 37.639 291.312 35.1689C287.547 32.6989 283.186 31.4639 278.228 31.4639C273.27 31.4639 268.817 32.6074 264.868 34.8945C261.894 36.5484 259.415 38.6694 257.431 41.2576V32.8361H245.036V98.0181H257.431V60.0067C257.431 56.7133 258.166 53.7858 259.635 51.2243C261.104 48.6628 263.124 46.6501 265.695 45.1864C268.266 43.7227 271.204 42.9908 274.509 42.9908C279.467 42.9908 283.507 44.5917 286.629 47.7937C289.751 50.9956 291.312 55.0666 291.312 60.0067Z" fill="white"/>
<path id="d" fill-rule="evenodd" clip-rule="evenodd" d="M355.057 99.3901C348.998 99.3901 343.58 97.9264 338.806 94.9989C334.032 91.98 330.221 87.909 327.375 82.7859C324.62 77.6628 323.243 71.8994 323.243 65.4955C323.243 59.0917 324.62 53.3282 327.375 48.2051C330.221 43.082 334.032 39.011 338.806 35.9921C343.58 32.9731 348.998 31.4636 355.057 31.4636C359.924 31.4636 364.331 32.5157 368.279 34.6198C371.788 36.4084 374.68 38.8472 376.956 41.9362V0.0390625H389.489V98.0179H376.956V89.105C374.701 92.1168 371.855 94.5388 368.417 96.3712C364.469 98.3838 360.016 99.3901 355.057 99.3901ZM367.866 84.8443C364.836 86.7654 361.255 87.726 357.123 87.726C352.992 87.726 349.319 86.7654 346.105 84.8443C342.984 82.9231 340.505 80.3158 338.668 77.0224C336.924 73.6375 336.052 69.7495 336.052 65.3583C336.052 61.0586 336.924 57.262 338.668 53.9686C340.505 50.5837 342.984 47.9307 346.105 46.0095C349.227 44.0884 352.854 43.1278 356.986 43.1278C361.117 43.1278 364.698 44.0884 367.728 46.0095C370.85 47.9307 373.283 50.538 375.028 53.8314C376.864 57.1248 377.782 61.0128 377.782 65.4955C377.782 69.7952 376.91 73.6375 375.165 77.0224C373.421 80.3158 370.988 82.9231 367.866 84.8443Z" fill="white"/>
<path id="e" fill-rule="evenodd" clip-rule="evenodd" d="M417.451 94.9992C422.684 97.9266 428.561 99.3904 435.08 99.3904C440.221 99.3904 445.042 98.4298 449.541 96.5086C454.131 94.5875 457.988 91.7972 461.109 88.1379L453.121 80.0416C450.918 82.6031 448.255 84.5243 445.133 85.8051C442.104 87.0858 438.752 87.7262 435.08 87.7262C430.672 87.7262 426.77 86.8114 423.373 84.9817C419.976 83.0606 417.359 80.4075 415.523 77.0226C414.399 74.8954 413.619 72.5625 413.183 70.0242H464.415C464.69 68.6519 464.874 67.4626 464.966 66.4563C465.058 65.3585 465.103 64.3522 465.103 63.4373C465.103 57.308 463.772 51.8189 461.109 46.9703C458.539 42.1217 454.912 38.3251 450.229 35.5806C445.638 32.8361 440.313 31.4639 434.253 31.4639C427.918 31.4639 422.179 32.9733 417.038 35.9923C411.988 38.9198 407.948 42.945 404.918 48.0681C401.98 53.1912 400.511 58.9547 400.511 65.3585C400.511 71.8538 402.026 77.663 405.056 82.7861C408.086 87.9092 412.217 91.9802 417.451 94.9992ZM413.208 59.7323H453.023C452.684 57.0344 451.983 54.6559 450.918 52.5966C449.357 49.4861 447.153 47.1075 444.307 45.4608C441.461 43.7227 438.018 42.8536 433.978 42.8536C429.754 42.8536 426.036 43.7684 422.822 45.5981C419.609 47.4277 417.129 49.9893 415.385 53.2827C414.356 55.2256 413.63 57.3755 413.208 59.7323Z" fill="white"/>
<path id="s" d="M496.66 99.3904C492.987 99.3904 489.498 98.9329 486.193 98.0181C482.979 97.0118 479.995 95.6395 477.241 93.9013C474.486 92.0717 472.099 89.9218 470.079 87.4518L478.067 79.4927C480.454 82.4202 483.209 84.6158 486.331 86.0795C489.452 87.4518 492.941 88.1379 496.798 88.1379C500.654 88.1379 503.638 87.4975 505.75 86.2167C507.861 84.8445 508.917 82.9691 508.917 80.5905C508.917 78.2119 508.045 76.3823 506.301 75.1015C504.648 73.7292 502.49 72.6314 499.828 71.8081C497.165 70.8933 494.319 70.0242 491.289 69.2008C488.351 68.286 485.55 67.1424 482.887 65.7702C480.225 64.3979 478.021 62.5225 476.277 60.1439C474.624 57.7654 473.798 54.6092 473.798 50.6754C473.798 46.7416 474.762 43.3567 476.69 40.5207C478.618 37.5933 481.281 35.3519 484.678 33.7967C488.167 32.2415 492.345 31.4639 497.211 31.4639C502.352 31.4639 506.897 32.3787 510.846 34.2084C514.885 35.9466 518.191 38.5996 520.762 42.1674L512.774 50.1265C510.937 47.7479 508.642 45.9183 505.887 44.6375C503.225 43.3567 500.195 42.7163 496.798 42.7163C493.217 42.7163 490.462 43.3567 488.534 44.6375C486.698 45.8268 485.78 47.5192 485.78 49.7148C485.78 51.9104 486.606 53.6029 488.259 54.7922C489.911 55.9814 492.069 56.9878 494.732 57.8111C497.486 58.6345 500.333 59.5036 503.271 60.4184C506.209 61.2417 509.009 62.3853 511.672 63.849C514.335 65.3128 516.492 67.2797 518.145 69.7497C519.889 72.2198 520.762 75.4674 520.762 79.4927C520.762 85.6221 518.558 90.4707 514.151 94.0386C509.836 97.6064 504.005 99.3904 496.66 99.3904Z" fill="white"/>
<path id="i two" fill-rule="evenodd" clip-rule="evenodd" d="M532.022 32.8359V98.0179H544.418V32.8359H532.022Z" fill="white"/>
<path id="g" fill-rule="evenodd" clip-rule="evenodd" d="M587.061 126.698C580.359 126.698 574.391 125.463 569.157 122.993C564.015 120.523 559.884 117.047 556.762 112.564L564.75 104.468C567.413 107.853 570.58 110.414 574.253 112.152C577.926 113.982 582.287 114.897 587.337 114.897C594.039 114.897 599.319 113.113 603.175 109.545C607.123 106.069 609.097 101.357 609.097 95.4108V86.7329C606.898 89.7311 604.051 92.1206 600.558 93.9013C596.61 95.914 592.111 96.9203 587.061 96.9203C581.093 96.9203 575.722 95.5023 570.948 92.6663C566.265 89.8303 562.546 85.9423 559.792 81.0022C557.037 75.9706 555.66 70.3444 555.66 64.1235C555.66 57.9026 557.037 52.3678 559.792 47.5192C562.546 42.5791 566.265 38.6911 570.948 35.8551C575.722 32.9276 581.093 31.4639 587.061 31.4639C592.203 31.4639 596.748 32.4702 600.696 34.4828C604.117 36.2266 606.917 38.5885 609.097 41.5684V32.8361H621.492V95.4108C621.492 101.632 620.023 107.075 617.085 111.741C614.239 116.406 610.199 120.066 604.965 122.719C599.824 125.372 593.856 126.698 587.061 126.698ZM600.145 82.6489C597.115 84.3871 593.58 85.2562 589.54 85.2562C585.409 85.2562 581.736 84.3871 578.522 82.6489C575.401 80.8192 572.922 78.3034 571.085 75.1015C569.341 71.8996 568.469 68.2402 568.469 64.1235C568.469 60.0067 569.341 56.3931 571.085 53.2827C572.922 50.0808 575.401 47.6107 578.522 45.8725C581.644 44.0428 585.271 43.128 589.403 43.128C593.534 43.128 597.115 44.0428 600.145 45.8725C603.175 47.6107 605.516 50.0808 607.169 53.2827C608.914 56.3931 609.786 60.0525 609.786 64.2607C609.786 68.4689 608.959 72.174 607.307 75.3759C605.654 78.4864 603.267 80.9107 600.145 82.6489Z" fill="white"/>
<path id="n twoo" fill-rule="evenodd" clip-rule="evenodd" d="M683.207 60.0067V98.0181H695.602V57.5367C695.602 53.054 694.5 48.8457 692.297 44.9119C690.093 40.8867 687.063 37.639 683.207 35.1689C679.443 32.6989 675.081 31.4639 670.123 31.4639C665.165 31.4639 660.712 32.6074 656.764 34.8945C653.79 36.5484 651.311 38.6694 649.327 41.2576V32.8361H636.932V98.0181H649.327V60.0067C649.327 56.7133 650.061 53.7858 651.53 51.2243C652.999 48.6628 655.019 46.6501 657.59 45.1864C660.161 43.7227 663.099 42.9908 666.405 42.9908C671.363 42.9908 675.403 44.5917 678.524 47.7937C681.646 50.9956 683.207 55.0666 683.207 60.0067Z" fill="white"/>
</g>
<path id="circle" d="M223.326 19.7995C221.03 19.7995 219.148 19.0676 217.679 17.6039C216.21 16.0486 215.476 14.1275 215.476 11.8404C215.476 9.6448 216.21 7.81513 217.679 6.35139C219.148 4.79617 221.03 4.01855 223.326 4.01855C225.621 4.01855 227.504 4.79617 228.973 6.35139C230.442 7.81513 231.176 9.6448 231.176 11.8404C231.176 14.1275 230.442 16.0486 228.973 17.6039C227.504 19.0676 225.621 19.7995 223.326 19.7995Z" fill="#16DB65"/>
<path id="circle2" d="M538.219 19.7995C535.924 19.7995 534.042 19.0676 532.573 17.6039C531.104 16.0486 530.369 14.1275 530.369 11.8404C530.369 9.6448 531.104 7.81513 532.573 6.35139C534.042 4.79617 535.924 4.01855 538.219 4.01855C540.515 4.01855 542.397 4.79617 543.866 6.35139C545.335 7.81513 546.07 9.6448 546.07 11.8404C546.07 14.1275 545.335 16.0486 543.866 17.6039C542.397 19.0676 540.515 19.7995 538.219 19.7995Z" fill="#16DB65"/>
<path id="trinfinity" d="M53.2965 135.861C48.1372 135.861 44.5576 132.442 41.5319 128.669C38.5063 132.442 34.9267 135.861 29.7674 135.861C23.7205 135.861 18.0029 130.242 18.0029 124.299C18.0029 118.356 23.7205 112.737 29.7674 112.737C34.9267 112.737 38.5063 116.157 41.5319 119.93C44.5576 116.157 48.1372 112.737 53.2965 112.737C59.3434 112.737 65.061 118.356 65.061 124.299C65.061 130.242 59.3434 135.861 53.2965 135.861ZM44.8581 124.299C47.4677 127.714 50.0527 130.606 53.2965 130.606C56.6921 130.606 59.7135 127.079 59.7135 124.299C59.7135 121.519 56.6921 117.993 53.2965 117.993C50.0537 117.993 47.4687 120.884 44.8581 124.299ZM29.7674 117.993C26.3718 117.993 23.3504 121.519 23.3504 124.299C23.3504 127.079 26.3718 130.606 29.7674 130.606C33.0102 130.606 35.5951 127.714 38.2058 124.299C35.5951 120.884 33.0102 117.993 29.7674 117.993Z" fill="#53DD6C"/>
<path id="ellipse" d="M23.3929 124.299C23.3929 130.694 18.1562 135.878 11.6965 135.878C5.23669 135.878 0 130.694 0 124.299C0 117.905 5.23669 112.721 11.6965 112.721C18.1562 112.721 23.3929 117.905 23.3929 124.299Z" fill="#16DB65"/>
</g>
</svg>
