<svg width="183" height="65" viewBox="0 0 183 65" fill="none" xmlns="http://www.w3.org/2000/svg">
<g id="trinalone">
<path id="trinfinity" d="M150 65C135.528 65 125.487 55.3889 117 44.782C108.513 55.3889 98.472 65 84 65C67.038 65 51 49.205 51 32.5C51 15.795 67.038 0 84 0C98.472 0 108.513 9.61114 117 20.218C125.487 9.61114 135.528 0 150 0C166.962 0 183 15.795 183 32.5C183 49.205 166.962 65 150 65ZM126.33 32.5C133.65 42.0993 140.901 50.2273 150 50.2273C159.525 50.2273 168 40.3148 168 32.5C168 24.6852 159.525 14.7727 150 14.7727C140.904 14.7727 133.653 22.9007 126.33 32.5ZM84 14.7727C74.475 14.7727 66 24.6852 66 32.5C66 40.3148 74.475 50.2273 84 50.2273C93.096 50.2273 100.347 42.0993 107.67 32.5C100.347 22.9007 93.096 14.7727 84 14.7727Z" fill="#53DD6C"/>
<path id="ellipse" d="M66 32.5C66 50.4493 51.2254 65 33 65C14.7746 65 0 50.4493 0 32.5C0 14.5507 14.7746 0 33 0C51.2254 0 66 14.5507 66 32.5Z" fill="#16DB65"/>
</g>
</svg>
